<svg xmlns="http://www.w3.org/2000/svg"
     viewBox="75 219 1737 435"
     role="img" aria-label="TK GROUP logo">
  <defs>
    <linearGradient id="silver" x1="0" y1="0" x2="0" y2="1">
      <stop offset="0%"   stop-color="#A5A9B2"/>
      <stop offset="15%"  stop-color="#B5B9C2"/>
      <stop offset="30%"  stop-color="#BCBFC5"/>
      <stop offset="45%"  stop-color="#DADDE1"/>
      <stop offset="55%"  stop-color="#C8CBD2"/>
      <stop offset="70%"  stop-color="#989BA1"/>
      <stop offset="85%"  stop-color="#888C96"/>
      <stop offset="100%" stop-color="#787C88"/>
    </linearGradient>
    <linearGradient id="blue" x1="0" y1="0" x2="0" y2="1">
      <stop offset="0%"   stop-color="#011840"/>
      <stop offset="10%"  stop-color="#012362"/>
      <stop offset="25%"  stop-color="#002E95"/>
      <stop offset="40%"  stop-color="#0042BB"/>
      <stop offset="50%"  stop-color="#003CB7"/>
      <stop offset="65%"  stop-color="#002581"/>
      <stop offset="80%"  stop-color="#002665"/>
      <stop offset="92%"  stop-color="#001540"/>
      <stop offset="100%" stop-color="#000A20"/>
    </linearGradient>
  </defs>
  <g transform="scale(0.333333,0.333333)">
    <g transform="translate(0.000000,2508.000000) scale(0.100000,-0.100000)" fill="url(#silver)" stroke="none">
    <path d="M2617 15647 c-16 -11 -17 -70 -18 -826 0 -585 3 -817 11 -825 8 -8
505 -12 1799 -16 1495 -4 1791 -7 1804 -19 16 -12 17 -214 17 -2717 0 -2565 1
-2704 18 -2711 9 -4 450 -6 979 -3 622 3 965 9 972 15 6 6 11 1000 14 2715 5
2705 5 2705 29 2717 17 8 473 13 1727 18 1704 8 1704 8 2285 594 319 322 678
685 798 805 120 121 218 225 218 232 0 8 -9 18 -19 24 -14 7 -1685 10 -5318
10 -4227 0 -5303 -3 -5316 -13z M21034 11836 c-15 -11 -19 -26 -18 -67 0 -38
5 -55 19 -65 16 -12 22 -12 39 0 16 10 22 26 24 67 3 42 -1 56 -14 66 -10 7
-21 13 -24 13 -3 0 -15 -6 -26 -14z"/>
    </g>
  </g>
  <g transform="scale(0.333333,0.333333)">
    <g transform="translate(0.000000,2508.000000) scale(0.100000,-0.100000)" fill="url(#blue)" stroke="none">
    <path d="M21042 18111 c-7 -4 -16 -29 -21 -57 -5 -27 -12 -132 -16 -234 -4
-102 -10 -801 -14 -1555 -5 -753 -11 -1377 -15 -1386 -4 -8 -22 -21 -40 -27
-33 -12 -33 -13 -39 -88 -3 -41 -12 -85 -20 -97 -7 -12 -17 -47 -22 -77 -11
-80 -23 -158 -34 -220 -5 -30 -10 -63 -10 -72 -1 -9 -12 -29 -25 -45 -23 -28
-26 -40 -46 -178 -5 -38 -14 -92 -20 -120 -6 -27 -14 -90 -20 -140 -8 -83 -16
-129 -55 -315 -7 -36 -18 -96 -25 -135 -6 -38 -16 -90 -22 -115 -6 -25 -15
-70 -19 -100 -4 -30 -18 -95 -29 -145 -12 -49 -28 -142 -35 -205 -8 -63 -19
-142 -24 -175 -17 -103 -22 -137 -31 -225 -5 -47 -15 -107 -21 -135 -6 -27
-14 -142 -18 -255 -3 -113 -10 -211 -15 -219 -13 -20 -8 -236 9 -385 8 -71 12
-133 9 -138 -3 -4 4 -41 14 -81 11 -39 22 -92 26 -117 3 -25 10 -106 16 -180
6 -74 15 -155 20 -180 5 -25 17 -97 26 -160 21 -148 28 -185 53 -300 12 -52
28 -138 36 -190 8 -53 16 -102 19 -110 8 -20 27 -139 37 -230 17 -151 26 -206
42 -250 8 -25 19 -67 23 -95 4 -27 13 -60 21 -71 13 -21 15 -42 13 -215 0 -55
5 -89 20 -123 11 -26 20 -62 20 -79 0 -18 7 -41 15 -51 8 -11 15 -30 15 -42 0
-13 11 -35 25 -50 23 -24 25 -36 27 -123 1 -53 2 -149 3 -213 2 -64 9 -138 16
-164 9 -30 22 -50 36 -57 12 -5 25 -17 29 -26 4 -9 11 -486 16 -1061 4 -575
12 -1099 17 -1164 7 -93 13 -123 26 -132 9 -7 23 -10 30 -8 7 3 16 15 19 27
13 47 25 523 31 1197 3 388 8 760 11 828 4 73 11 127 18 133 6 5 19 15 29 22
16 11 19 34 23 216 3 130 11 250 24 330 10 69 17 144 13 167 -3 23 0 81 6 129
9 61 21 104 42 143 16 31 36 86 44 122 14 63 30 178 43 311 5 42 14 74 25 86
11 12 17 36 17 64 0 24 5 62 11 84 11 40 33 188 48 320 5 39 13 84 19 100 5
17 16 71 23 120 7 50 23 122 37 160 24 72 44 177 44 230 0 17 6 57 13 90 7 33
16 119 19 190 4 72 11 150 16 175 17 76 53 313 53 345 0 17 -3 183 -6 370 -4
187 -11 390 -17 450 -17 173 -48 388 -70 485 -6 25 -14 74 -18 110 -4 36 -11
71 -16 78 -7 12 -36 135 -56 242 -5 25 -14 68 -20 95 -6 28 -19 102 -29 165
-10 63 -23 126 -29 140 -5 14 -15 50 -21 80 -24 128 -31 158 -45 210 -9 30
-16 75 -16 101 0 25 -4 70 -9 100 -6 30 -15 88 -22 129 -7 41 -19 85 -26 96
-8 12 -11 32 -8 46 4 16 -2 39 -19 68 -18 31 -26 60 -26 95 0 28 -7 91 -16
140 -15 90 -32 302 -33 403 -1 50 -3 54 -31 65 -17 7 -33 21 -35 32 -2 11 -6
553 -10 1205 -5 1086 -15 1632 -31 1767 -6 51 -20 68 -42 54z m54 -6316 c3
-13 3 -32 0 -43 -12 -35 -70 -36 -81 -1 -4 11 -4 31 -1 44 10 40 72 40 82 0z
M15521 15654 c-14 -7 -62 -45 -106 -85 -44 -41 -121 -108 -170 -149 -50 -41
-151 -129 -226 -195 -120 -105 -239 -209 -441 -381 -31 -27 -128 -112 -214
-189 -87 -77 -178 -157 -203 -179 -25 -21 -86 -75 -135 -120 -84 -77 -163
-145 -363 -315 -49 -41 -120 -104 -158 -140 -39 -36 -131 -118 -204 -181 -73
-63 -186 -162 -250 -220 -64 -58 -133 -118 -152 -134 -18 -16 -65 -59 -104
-95 -38 -36 -106 -97 -150 -136 -96 -84 -204 -183 -303 -277 -68 -66 -76 -70
-135 -79 -34 -5 -600 -9 -1263 -8 -660 0 -1208 -3 -1217 -7 -29 -11 -19 -39
19 -58 20 -9 73 -45 118 -80 44 -34 106 -78 136 -96 30 -19 116 -80 191 -135
132 -98 384 -281 642 -467 71 -51 193 -140 272 -198 78 -58 173 -125 210 -150
36 -25 122 -86 190 -137 68 -50 161 -118 207 -150 46 -32 119 -85 163 -118 44
-33 98 -72 120 -87 36 -24 325 -235 350 -255 6 -5 42 -31 80 -58 39 -27 102
-73 140 -102 39 -29 86 -64 105 -78 163 -119 242 -176 275 -197 22 -14 52 -36
66 -49 28 -26 219 -169 278 -208 20 -13 95 -68 166 -121 72 -53 148 -109 171
-126 23 -16 74 -54 115 -85 41 -31 115 -84 164 -118 50 -34 144 -102 210 -151
66 -50 161 -119 210 -154 50 -35 106 -77 125 -94 19 -16 71 -53 115 -83 44
-30 116 -81 161 -114 169 -125 471 -343 625 -450 56 -38 119 -85 141 -103 40
-32 40 -32 1683 -32 904 0 1650 3 1659 6 9 3 16 17 16 30 0 15 -9 28 -27 38
-16 8 -76 50 -136 93 -129 94 -273 197 -332 238 -24 17 -81 59 -127 95 -112
87 -166 126 -209 149 -19 11 -41 27 -48 35 -7 9 -57 45 -110 81 -53 37 -123
86 -156 111 -33 25 -78 56 -100 71 -22 14 -56 40 -76 57 -20 17 -60 47 -88 66
-100 68 -242 169 -437 314 -144 106 -175 128 -332 238 -37 27 -107 77 -157
113 -49 35 -162 116 -250 179 -298 213 -330 236 -420 302 -49 35 -108 77 -130
91 -22 15 -93 65 -157 112 -64 47 -155 113 -202 146 -47 33 -152 108 -233 167
-82 59 -195 141 -253 183 -58 41 -169 121 -247 178 -78 56 -165 118 -193 137
-28 19 -124 88 -212 153 -88 64 -163 117 -168 117 -12 0 -21 31 -14 52 3 10
96 86 207 169 111 82 211 156 222 165 11 8 46 34 78 57 32 23 149 110 260 192
111 83 292 215 402 294 110 79 315 228 455 332 319 236 648 480 676 499 11 8
75 56 141 105 67 50 225 167 353 260 127 94 339 250 471 348 132 98 255 188
273 200 18 12 55 39 82 60 27 21 99 75 159 119 61 44 160 116 220 160 61 45
128 94 150 110 22 16 91 66 152 111 62 45 143 103 180 129 38 26 109 77 158
113 50 36 111 79 138 96 28 19 47 39 47 51 0 10 -6 21 -14 24 -8 3 -753 6
-1656 7 -1217 2 -1650 -1 -1669 -9z M24060 13949 c-91 -5 -199 -16 -240 -24
-41 -9 -104 -25 -140 -36 -112 -36 -244 -107 -309 -165 -66 -60 -151 -171
-176 -231 -26 -60 -51 -141 -71 -228 -18 -76 -18 -150 -16 -1605 1 -839 5
-1547 8 -1575 11 -95 34 -180 75 -276 27 -64 58 -118 94 -162 30 -36 69 -76
87 -90 59 -45 161 -98 253 -132 50 -17 135 -41 190 -51 96 -18 178 -19 2025
-19 1500 0 1936 3 1975 13 28 7 76 17 107 22 82 15 211 64 293 112 39 23 98
69 131 104 92 93 161 226 196 379 9 39 20 113 23 165 4 52 8 495 10 983 2 751
0 890 -12 902 -11 12 -224 14 -1393 14 -1013 1 -1387 -2 -1405 -11 -25 -11
-25 -11 -25 -439 0 -428 0 -428 23 -441 17 -10 195 -13 855 -13 729 0 834 -2
842 -15 13 -20 13 -800 0 -820 -8 -13 -199 -15 -1615 -15 -1416 0 -1607 2
-1615 15 -6 9 -10 521 -10 1336 0 1124 2 1323 14 1340 14 19 44 19 1583 22
862 1 1582 0 1600 -3 17 -3 35 -13 39 -23 5 -9 9 -109 11 -221 1 -155 5 -206
15 -213 7 -5 36 -6 63 -3 28 3 91 10 140 15 83 9 177 21 360 49 91 14 220 31
320 42 135 15 194 25 202 33 13 12 15 371 4 476 -12 113 -42 233 -75 306 -47
102 -112 190 -190 257 -47 39 -112 82 -169 110 -101 49 -181 77 -220 77 -14 0
-38 5 -54 11 -15 6 -84 15 -153 19 -179 13 -3448 21 -3650 9z M36715 13944
c-87 -7 -172 -18 -189 -24 -16 -5 -41 -10 -55 -10 -44 0 -213 -64 -274 -104
-32 -20 -90 -67 -129 -104 -39 -37 -87 -92 -108 -123 -41 -62 -89 -179 -114
-274 -8 -33 -18 -103 -22 -155 -8 -116 -7 -2856 2 -2995 9 -156 47 -300 110
-412 19 -34 57 -86 85 -117 27 -30 79 -76 114 -101 102 -73 195 -108 375 -144
30 -6 143 -16 250 -21 238 -12 3423 -12 3735 0 121 4 247 14 280 20 111 22
200 53 290 99 69 35 108 64 170 126 48 48 93 104 112 140 42 81 81 198 94 282
13 86 31 1870 26 2583 -3 359 -8 544 -16 585 -31 155 -47 214 -67 260 -21 48
-80 141 -134 213 -14 19 -54 55 -90 82 -101 74 -283 160 -341 160 -14 0 -45 6
-70 14 -94 30 -515 36 -2209 35 -1295 -1 -1700 -5 -1825 -15z m3592 -940 c12
-3 25 -13 30 -22 4 -10 9 -609 11 -1332 2 -1139 1 -1318 -12 -1335 -14 -20
-28 -20 -1701 -20 -1487 0 -1687 2 -1696 15 -7 10 -8 435 -4 1335 3 726 8
1328 11 1337 3 9 13 19 22 21 26 7 3314 8 3339 1z M43108 13950 c-342 -3 -511
-8 -518 -16 -7 -7 -10 -560 -7 -1900 2 -1382 6 -1901 15 -1934 6 -25 16 -70
22 -100 6 -30 14 -71 19 -90 12 -55 79 -173 137 -244 30 -36 84 -88 120 -115
37 -28 90 -62 118 -75 81 -38 205 -76 281 -87 39 -5 93 -14 120 -19 63 -11
3462 -12 3530 0 28 5 78 13 112 18 98 16 231 60 323 108 47 24 108 63 137 86
29 24 73 70 98 102 25 32 55 80 66 105 47 103 72 182 92 286 21 109 21 126 24
1975 3 1547 2 1868 -10 1883 -12 18 -40 19 -541 17 -353 0 -535 -4 -549 -11
-19 -11 -20 -22 -16 -1758 2 -960 0 -1756 -4 -1768 -5 -15 -19 -24 -40 -28
-18 -3 -684 -4 -1480 -3 -1274 3 -1449 5 -1457 18 -6 9 -10 684 -10 1777 0
1732 0 1762 -19 1773 -11 5 -28 9 -38 8 -10 -2 -246 -5 -525 -8z M50258 13950
c-860 -3 -1280 -8 -1287 -15 -7 -7 -11 -732 -11 -2285 0 -1463 3 -2277 9
-2283 6 -6 208 -9 543 -8 293 0 540 4 550 7 16 5 17 53 20 807 2 441 7 809 11
819 5 9 18 19 30 22 12 3 675 6 1473 6 1556 2 1510 1 1744 53 52 11 120 30
150 42 133 53 191 88 269 161 44 41 95 99 115 128 38 57 97 199 116 281 6 28
18 118 25 200 17 194 21 1112 5 1240 -26 210 -42 273 -97 377 -35 65 -68 109
-125 165 -42 42 -96 89 -120 105 -103 70 -267 138 -334 138 -17 0 -51 7 -75
16 -38 14 -141 17 -739 24 -382 5 -762 8 -845 7 -82 -1 -725 -4 -1427 -7z
m2542 -960 c30 -11 65 -32 77 -46 12 -13 28 -43 35 -67 9 -30 12 -144 13 -402
0 -354 0 -361 -22 -402 -13 -23 -37 -53 -55 -66 -18 -13 -55 -33 -83 -43 -48
-18 -101 -19 -1320 -19 -698 0 -1286 4 -1307 8 -28 6 -39 14 -47 39 -7 21 -11
175 -10 462 0 401 6 526 22 542 4 4 35 11 69 15 35 4 628 6 1318 4 1251 -3
1255 -3 1310 -25z M29720 13940 c-13 -8 -15 -271 -12 -2287 1 -1252 6 -2281
10 -2285 5 -5 244 -10 533 -12 447 -4 527 -3 547 10 22 14 22 14 22 817 0 488
4 808 10 817 8 13 70 15 437 18 286 2 440 0 465 -8 20 -6 45 -21 55 -33 21
-26 113 -112 313 -292 80 -71 192 -175 250 -231 115 -110 211 -199 370 -344
57 -52 147 -136 200 -186 52 -50 122 -115 155 -144 33 -30 125 -115 205 -190
80 -75 168 -157 195 -183 51 -46 51 -46 828 -50 427 -2 782 0 788 4 19 11 2
54 -25 67 -14 6 -65 46 -113 89 -48 43 -128 112 -178 152 -106 87 -320 269
-384 327 -26 23 -120 104 -211 180 -91 77 -224 189 -295 251 -321 276 -424
363 -511 435 -51 43 -95 86 -99 97 -3 10 -3 25 0 34 4 8 16 18 28 21 12 3 132
6 266 6 269 0 345 9 536 62 61 17 154 53 207 80 66 33 120 70 167 114 38 35
86 90 107 122 43 64 78 144 105 242 10 36 25 125 34 196 13 109 15 223 12 700
-3 455 -7 589 -20 669 -9 55 -20 116 -25 136 -28 108 -95 234 -165 307 -23 24
-69 64 -101 90 -62 48 -205 122 -295 153 -30 11 -68 19 -85 19 -17 0 -53 8
-81 17 -46 16 -199 18 -2140 20 -1351 2 -2095 0 -2105 -7z m3770 -944 c25 -11
55 -27 68 -35 12 -9 33 -34 45 -56 21 -39 22 -50 25 -402 2 -238 -1 -375 -8
-402 -6 -22 -21 -53 -34 -68 -13 -15 -50 -41 -82 -58 -59 -30 -59 -30 -1324
-33 -696 -2 -1279 0 -1297 3 -66 12 -63 -15 -63 533 0 273 4 503 9 510 4 8 33
17 62 22 30 4 617 7 1304 6 1211 -1 1251 -2 1295 -20z"/>
    </g>
  </g>
</svg>